grf
version=1
nRows=58
nColumns=19
inDegrees=yes
endheader
time	ground_force_1_vx	ground_force_1_vy	ground_force_1_vz	ground_force_1_px	ground_force_1_py	ground_force_1_pz	ground_moment_1_mx	ground_moment_1_my	ground_moment_1_mz	ground_force_2_vx	ground_force_2_vy	ground_force_2_vz	ground_force_2_px	ground_force_2_py	ground_force_2_pz	ground_moment_2_mx	ground_moment_2_my	ground_moment_2_mz
1.637000	4.527978	1400.762696	-475.133324	0.164830	0.000000	-0.730288	0.000000	9.984964	-0.000000	-5.217160	1360.569305	497.470037	0.180970	0.000000	-1.571479	-0.000000	-6.646203	-0.000000
1.638000	4.477871	1400.635393	-475.084042	0.164912	0.000000	-0.732215	-0.000000	9.977044	-0.000000	-5.195906	1360.503709	497.535632	0.182286	0.000000	-1.573838	-0.000000	-6.651079	-0.000000
1.639000	4.429621	1400.496387	-475.032122	0.165812	0.000000	-0.733066	-0.000000	9.968828	-0.000000	-5.170573	1360.413112	497.600895	0.181678	0.000000	-1.573040	-0.000000	-6.656231	-0.000000
1.640000	4.383026	1400.344000	-474.978188	0.165442	0.000000	-0.733077	-0.000000	9.960428	-0.000000	-5.141171	1360.297790	497.665958	0.181546	0.000000	-1.573424	-0.000000	-6.661746	-0.000000
1.641000	4.337936	1400.176814	-474.922941	0.164518	0.000000	-0.735524	-0.000000	9.951939	-0.000000	-5.107694	1360.158241	497.730972	0.182929	0.000000	-1.572712	-0.000000	-6.667681	-0.000000
1.642000	4.294212	1399.994385	-474.867137	0.165454	0.000000	-0.732796	-0.000000	9.943440	-0.000000	-5.070263	1359.995155	497.796073	0.181645	0.000000	-1.573406	-0.000000	-6.674035	-0.000000
1.643000	4.251657	1399.797287	-474.811556	0.165522	0.000000	-0.732192	-0.000000	9.935009	-0.000000	-5.029201	1359.810066	497.861335	0.181850	0.000000	-1.573757	-0.000000	-6.680727	-0.000000
1.644000	4.210069	1399.586725	-474.756949	0.165110	0.000000	-0.733056	-0.000000	9.926703	-0.000000	-4.984965	1359.605335	497.926686	0.181617	0.000000	-1.572970	-0.000000	-6.687615	-0.000000
1.645000	4.169312	1399.364413	-474.703988	0.165386	0.000000	-0.731873	-0.000000	9.918550	-0.000000	-4.938027	1359.383576	497.991898	0.181451	0.000000	-1.573544	-0.000000	-6.694530	-0.000000
1.646000	4.129328	1399.132464	-474.653244	0.165559	0.000000	-0.733299	-0.000000	9.910570	-0.000000	-4.888820	1359.147551	498.056665	0.181405	0.000000	-1.574371	-0.000000	-6.701308	-0.000000
1.647000	4.090109	1398.892958	-474.605247	0.165297	0.000000	-0.732163	-0.000000	9.902792	-0.000000	-4.837754	1358.900359	498.120739	0.181922	0.000000	-1.573494	-0.000000	-6.707813	-0.000000
1.648000	4.051700	1398.647654	-474.560516	0.165611	0.000000	-0.732909	-0.000000	9.895268	-0.000000	-4.785258	1358.645418	498.183957	0.182749	0.000000	-1.573651	-0.000000	-6.713936	-0.000000
1.649000	4.014192	1398.398070	-474.519581	0.165279	0.000000	-0.733122	-0.000000	9.888080	-0.000000	-4.731769	1358.386617	498.246160	0.181751	0.000000	-1.573472	-0.000000	-6.719564	-0.000000
1.650000	3.977725	1398.145764	-474.483013	0.165979	0.000000	-0.732847	-0.000000	9.881345	-0.000000	-4.677698	1358.128497	498.307123	0.181891	0.000000	-1.573741	-0.000000	-6.724563	-0.000000
1.651000	3.942479	1397.892658	-474.451388	0.165989	0.000000	-0.732959	-0.000000	9.875199	-0.000000	-4.623442	1357.875924	498.366601	0.181155	0.000000	-1.572138	-0.000000	-6.728797	-0.000000
1.652000	3.908689	1397.641089	-474.425245	0.165328	0.000000	-0.732819	-0.000000	9.869768	-0.000000	-4.569409	1357.633715	498.424474	0.180696	0.000000	-1.573954	-0.000000	-6.732186	-0.000000
1.653000	3.876664	1397.393610	-474.405098	0.165843	0.000000	-0.733342	-0.000000	9.865162	-0.000000	-4.516054	1357.406013	498.480801	0.182476	0.000000	-1.573160	-0.000000	-6.734750	-0.000000
1.654000	3.846778	1397.152680	-474.391408	0.165872	0.000000	-0.731964	-0.000000	9.861495	-0.000000	-4.463881	1357.195265	498.535688	0.181965	0.000000	-1.574530	-0.000000	-6.736599	-0.000000
1.655000	3.819456	1396.920315	-474.384481	0.166689	0.000000	-0.735254	-0.000000	9.858866	-0.000000	-4.413328	1357.002237	498.589207	0.182098	0.000000	-1.573775	-0.000000	-6.737855	-0.000000
1.656000	3.795156	1396.698110	-474.384384	0.165981	0.000000	-0.732256	-0.000000	9.857315	0.000000	-4.364664	1356.827174	498.641462	0.181606	0.000000	-1.572618	-0.000000	-6.738613	-0.000000
1.657000	3.774351	1396.487596	-474.390929	0.165963	0.000000	-0.731729	-0.000000	9.856795	0.000000	-4.318031	1356.670372	498.692610	0.181962	0.000000	-1.573606	-0.000000	-6.738964	-0.000000
1.658000	3.757484	1396.290302	-474.403715	0.166583	0.000000	-0.733063	-0.000000	9.857171	0.000000	-4.273506	1356.532027	498.742794	0.182312	0.000000	-1.573802	-0.000000	-6.739039	-0.000000
1.659000	3.744923	1396.107788	-474.422232	0.165851	0.000000	-0.732179	-0.000000	9.858246	0.000000	-4.231132	1356.412190	498.792081	0.182174	0.000000	-1.573772	-0.000000	-6.739017	-0.000000
1.660000	3.736970	1395.942078	-474.445955	0.165207	0.000000	-0.732829	-0.000000	9.859789	0.000000	-4.190995	1356.310831	498.840482	0.183099	0.000000	-1.574207	-0.000000	-6.739087	-0.000000
1.661000	3.733909	1395.795975	-474.474349	0.165325	0.000000	-0.731010	-0.000000	9.861556	0.000000	-4.153294	1356.227863	498.887966	0.182075	0.000000	-1.573560	-0.000000	-6.739413	-0.000000
1.662000	3.735984	1395.672629	-474.506895	0.165306	0.000000	-0.729963	-0.000000	9.863332	0.000000	-4.118291	1356.163274	498.934351	0.182143	0.000000	-1.572526	0.000000	-6.740101	-0.000000
1.663000	3.743237	1395.574404	-474.543184	0.165960	0.000000	-0.732491	-0.000000	9.864953	0.000000	-4.086202	1356.117186	498.979236	0.182086	0.000000	-1.573772	0.000000	-6.741215	-0.000000
1.664000	3.755395	1395.502392	-474.582986	0.165898	0.000000	-0.733334	-0.000000	9.866303	0.000000	-4.057151	1356.089726	499.022157	0.181894	0.000000	-1.573923	0.000000	-6.742817	-0.000000
1.665000	3.771968	1395.457093	-474.626171	0.165678	0.000000	-0.732282	-0.000000	9.867291	0.000000	-4.031220	1356.080842	499.062804	0.182813	0.000000	-1.572942	0.000000	-6.744971	-0.000000
1.666000	3.792405	1395.438948	-474.672609	0.165520	0.000000	-0.732053	-0.000000	9.867845	0.000000	-4.008487	1356.090002	499.101084	0.183051	0.000000	-1.574416	0.000000	-6.747716	-0.000000
1.667000	3.816137	1395.448226	-474.722118	0.166267	0.000000	-0.732493	-0.000000	9.867898	0.000000	-3.989005	1356.116090	499.137054	0.182429	0.000000	-1.574378	0.000000	-6.751032	-0.000000
1.668000	3.842581	1395.484991	-474.774490	0.165260	0.000000	-0.732802	-0.000000	9.867392	0.000000	-3.972786	1356.157675	499.170837	0.182943	0.000000	-1.574877	0.000000	-6.754822	-0.000000
1.669000	3.871150	1395.549246	-474.829531	0.165894	0.000000	-0.731577	-0.000000	9.866286	0.000000	-3.959816	1356.213175	499.202572	0.182281	0.000000	-1.573867	0.000000	-6.758935	-0.000000
1.670000	3.901276	1395.640712	-474.887156	0.165707	0.000000	-0.731917	-0.000000	9.864595	0.000000	-3.950068	1356.281085	499.232345	0.182041	0.000000	-1.572876	0.000000	-6.763189	-0.000000
1.671000	3.932438	1395.758556	-474.947449	0.166404	0.000000	-0.732829	-0.000000	9.862389	0.000000	-3.943524	1356.360627	499.260130	0.181833	0.000000	-1.574212	0.000000	-6.767407	-0.000000
1.672000	3.964195	1395.901489	-475.010581	0.165154	0.000000	-0.732002	-0.000000	9.859763	0.000000	-3.940209	1356.451887	499.285795	0.182077	0.000000	-1.574153	0.000000	-6.771449	-0.000000
1.673000	3.996221	1396.067824	-475.076655	0.165557	0.000000	-0.732572	-0.000000	9.856810	0.000000	-3.940237	1356.554940	499.309172	0.183287	0.000000	-1.573414	0.000000	-6.775227	-0.000000
1.674000	4.028303	1396.255184	-475.145621	0.166021	0.000000	-0.729443	-0.000000	9.853642	0.000000	-3.943806	1356.669117	499.330117	0.181650	0.000000	-1.575502	0.000000	-6.778691	-0.000000
1.675000	4.060272	1396.460232	-475.217220	0.166220	0.000000	-0.732484	-0.000000	9.850384	0.000000	-3.951182	1356.792808	499.348525	0.182975	0.000000	-1.574894	0.000000	-6.781798	-0.000000
1.676000	4.091970	1396.678830	-475.290985	0.165561	0.000000	-0.732984	-0.000000	9.847148	0.000000	-3.962706	1356.923526	499.364313	0.182952	0.000000	-1.574353	0.000000	-6.784510	-0.000000
1.677000	4.123358	1396.906534	-475.366333	0.166106	0.000000	-0.730560	-0.000000	9.843983	0.000000	-3.978795	1357.058397	499.377398	0.182303	0.000000	-1.574171	0.000000	-6.786772	-0.000000
1.678000	4.154602	1397.138731	-475.442656	0.165857	0.000000	-0.732066	-0.000000	9.840856	0.000000	-3.999919	1357.194759	499.387694	0.183111	0.000000	-1.574978	0.000000	-6.788520	-0.000000
1.679000	4.186011	1397.370568	-475.519360	0.166162	0.000000	-0.732487	-0.000000	9.837682	0.000000	-4.026589	1357.330413	499.395115	0.182500	0.000000	-1.573875	0.000000	-6.789686	-0.000000
1.680000	4.217906	1397.597377	-475.595882	0.165759	0.000000	-0.733066	-0.000000	9.834369	0.000000	-4.059360	1357.463601	499.399579	0.182538	0.000000	-1.574594	0.000000	-6.790190	-0.000000
1.681000	4.250536	1397.815259	-475.671689	0.165656	0.000000	-0.733589	-0.000000	9.830860	0.000000	-4.098879	1357.592869	499.400991	0.182938	0.000000	-1.573758	0.000000	-6.789954	-0.000000
1.682000	4.284067	1398.021271	-475.746302	0.165641	0.000000	-0.731975	-0.000000	9.827147	0.000000	-4.145914	1357.716743	499.399197	0.182302	0.000000	-1.575051	0.000000	-6.788915	-0.000000
1.683000	4.318604	1398.213291	-475.819349	0.166327	0.000000	-0.732536	-0.000000	9.823247	0.000000	-4.201264	1357.833113	499.393968	0.182598	0.000000	-1.575974	0.000000	-6.787056	-0.000000
1.684000	4.354141	1398.389862	-475.890645	0.165842	0.000000	-0.732361	-0.000000	9.819161	0.000000	-4.265598	1357.938830	499.384963	0.183392	0.000000	-1.574407	0.000000	-6.784430	-0.000000
1.685000	4.390487	1398.550097	-475.960192	0.165551	0.000000	-0.733330	-0.000000	9.814866	0.000000	-4.339374	1358.030134	499.371649	0.182846	0.000000	-1.573890	0.000000	-6.781146	-0.000000
1.686000	4.427332	1398.693320	-476.028085	0.164734	0.000000	-0.729043	-0.000000	9.810339	0.000000	-4.422927	1358.103612	499.353247	0.182761	0.000000	-1.573347	0.000000	-6.777321	-0.000000
1.687000	4.464355	1398.818274	-476.094464	0.166890	0.000000	-0.732858	-0.000000	9.805592	0.000000	-4.516548	1358.156972	499.328831	0.182897	0.000000	-1.574436	0.000000	-6.773061	-0.000000
1.688000	4.501257	1398.922681	-476.159539	0.166505	0.000000	-0.732899	-0.000000	9.800676	0.000000	-4.620431	1358.188961	499.297554	0.182847	0.000000	-1.574695	0.000000	-6.768444	-0.000000
1.689000	4.537753	1399.003880	-476.223652	0.165998	0.000000	-0.732487	-0.000000	9.795633	0.000000	-4.734613	1358.198509	499.258761	0.183718	0.000000	-1.575734	0.000000	-6.763510	-0.000000
1.690000	4.573532	1399.059789	-476.287318	0.165951	0.000000	-0.732535	-0.000000	9.790494	0.000000	-4.859038	1358.184294	499.211911	0.183036	0.000000	-1.574246	0.000000	-6.758267	-0.000000
1.691000	4.608252	1399.089305	-476.351216	0.166457	0.000000	-0.732477	-0.000000	9.785289	0.000000	-4.993662	1358.144941	499.156462	0.182269	0.000000	-1.572151	0.000000	-6.752718	-0.000000
1.692000	4.641550	1399.092439	-476.416087	0.166071	0.000000	-0.734619	-0.000000	9.780045	0.000000	-5.138482	1358.079268	499.091849	0.182954	0.000000	-1.574628	0.000000	-6.746902	-0.000000
1.693000	4.673060	1399.070690	-476.482598	0.166469	0.000000	-0.732997	-0.000000	9.774763	0.000000	-5.293458	1357.986225	499.017483	0.183523	0.000000	-1.574629	0.000000	-6.740924	-0.000000
1.694000	4.702430	1399.027277	-476.551280	0.166007	0.000000	-0.731622	-0.000000	9.769400	0.000000	-5.458353	1357.864484	498.932763	0.183930	0.000000	-1.574217	0.000000	-6.734921	-0.000000
